<svg xmlns="http://www.w3.org/2000/svg" viewBox="0 0 229.18 188.67">
    <defs>
        <style>.cls-1{fill:#fff;}.cls-2{fill:#d1282f;}.cls-3{fill:#ffc60b;}.cls-4{fill:#f8f7f7;}</style>
    </defs>
    <g id="Layer_2">
        <g id="Layer_1-2">
            <path class="cls-1"
                  d="M50.34,0A21.43,21.43,0,0,0,37.81,4.1a21.06,21.06,0,0,0-7.77,11L.91,111.42a21.24,21.24,0,0,0,14.17,26.45l165,49.89a21.06,21.06,0,0,0,6.15.91,21.31,21.31,0,0,0,12.52-4.1,20.94,20.94,0,0,0,7.78-11l22-72.62.69-2.28L228,96.63,198.76,45.5l-1.09-1.9-2.1-.63L56.49.91A21.45,21.45,0,0,0,50.34,0Z"/>
            <path class="cls-2"
                  d="M32.31,120.84v-.13c0-13.07,10.54-23.66,24.57-23.66,11.51,0,20.57,7,23.47,16.76v-5.52H92.7v19c0,3.83,2,5.91,5,5.91s5.2-2.08,5.2-5.91v-19h17.22v-8.9H132.4v8.9h5.78v9.88H132.4v12c0,2.47,1.11,3.51,3.39,3.51a8.16,8.16,0,0,0,6.13-2.69V96h12.29v25.92a17.35,17.35,0,0,1,17.38-14.38c6.85,0,11.61,2.88,14.44,7.24v-6.49h5.42v-8.9h12.28v8.9h5.78v9.88h-5.78v12c0,2.47,1.11,3.51,3.38,3.51a8.55,8.55,0,0,0,6.72-3.23l9.38-31-17.9-24.54L194,48.25,54.89,6.19A15.71,15.71,0,0,0,35.31,16.68L25.86,47.94H44.14c5.51,0,9.39,1.38,12,3.88A9.84,9.84,0,0,1,58.91,59v.12c0,5.08-2.88,8.08-6.76,9.77a14.41,14.41,0,0,1,6.19,3.62C59.53,63.91,67,57.13,76.9,57.12c8.27,0,14.78,4.63,17.41,11.12,2.66-6.47,9.18-11.13,17.41-11.13,9.47,0,16.64,6.07,18.3,14v-25h11.9V69.27l9.2-11.34h13.46L152.81,71.46l12.1,20.34H151.75L145,80.23l-3.07,3.57v8H130V78.36c-1.66,8-8.89,14.19-18.41,14.19-8.23,0-14.73-4.63-17.35-11.11-2.67,6.46-9.2,11.12-17.47,11.12a18.4,18.4,0,0,1-16.47-9.25c-1.71,5.33-7.4,8.45-16,8.45l-22.6,0,0-30L6.18,113A15.7,15.7,0,0,0,16.67,132.6l26.65,8.06A23.1,23.1,0,0,1,32.31,120.84Z"/>
            <path class="cls-2"
                  d="M165.45,123l12.29,0c-.45-3.9-2.78-6.37-6.17-6.38C168.33,116.64,166.11,119.1,165.45,123Z"/>
            <path class="cls-2"
                  d="M68.39,120.84v-.13c0-6.63-4.68-12.29-11.64-12.29S45.19,114,45.19,120.57v.14c0,6.56,4.74,12.28,11.69,12.28S68.39,127.4,68.39,120.84Z"/>
            <path class="cls-2"
                  d="M203.21,144.17c-7.41,0-11.76-3.25-11.76-11.63V118.17h-3.71a23.93,23.93,0,0,1,1.49,8.65c0,.78,0,1.69-.06,2.53l-23.53,0c1,3.83,3.75,5.79,7.59,5.8,3,0,5.27-1.1,7.81-3.56l6.81,5.66a18.37,18.37,0,0,1-15.22,7.12c-9.59,0-16.71-5.61-18.42-14.18v13.31H141.92v-2.21a17.93,17.93,0,0,1-10,2.92c-7.41,0-11.77-3.25-11.77-11.63V118.17h-4.93v25.29H102.9v-4.88c-2.27,2.93-5.53,5.66-10.53,5.66-7.48,0-12-5-12-13v-3.8c-2.92,9.79-12.07,16.93-23.6,16.93q-.63,0-1.26,0l126.18,38.15A15.71,15.71,0,0,0,201.25,172l8.8-29.09A18.28,18.28,0,0,1,203.21,144.17Z"/>
            <path class="cls-2"
                  d="M41.45,57.71h-8v7.7h7.64c3.69,0,5.82-1.26,5.82-3.83v-.12C47,59,45,57.7,41.45,57.71Z"/>
            <path class="cls-2"
                  d="M111.73,82.47c4.32,0,7.14-3.45,7.13-7.52v-.13a7.41,7.41,0,0,0-7.27-7.69c-4.33,0-7.08,3.44-7.08,7.58v.12A7.35,7.35,0,0,0,111.73,82.47Z"/>
            <path class="cls-2" d="M33.5,73.93V82h9.4c3.75,0,5.82-1.44,5.82-4v-.13c0-2.38-1.88-3.94-5.95-3.94Z"/>
            <path class="cls-2"
                  d="M84,75v-.13a7.41,7.41,0,0,0-7.26-7.7c-4.33,0-7.08,3.45-7.08,7.58v.13a7.35,7.35,0,0,0,7.21,7.64C81.23,82.48,84,79,84,75Z"/>
            <path class="cls-3" d="M194,48.24l-7.3,24.16a15.24,15.24,0,0,0,10.18,19l26.36,8Z"/>
            <path class="cls-4"
                  d="M208.32,100.82h1.51a1.36,1.36,0,0,1,1,.34,1,1,0,0,1,.28.73h0a1,1,0,0,1-.8,1l.91,1.28h-.7l-.83-1.18h-.75v1.18h-.59Zm1.46,1.68c.43,0,.7-.22.7-.56h0c0-.37-.26-.56-.7-.56h-.87v1.13Z"/>
            <path class="cls-1"
                  d="M212.83,102.54a3.2,3.2,0,1,1-3.2-3.21A3.21,3.21,0,0,1,212.83,102.54Zm-3.2-2.66a2.66,2.66,0,1,0,2.66,2.66A2.66,2.66,0,0,0,209.63,99.88Z"/>
        </g>
    </g>
</svg>